<svg class="icon" viewBox="0 0 1024 1024" xmlns="http://www.w3.org/2000/svg" width="32" height="32"><path d="M872.756 859.17a27.477 27.477 0 0 1-27 27.546H153.362a27.511 27.511 0 0 1-27.17-27.717V424.482a27.238 27.238 0 0 1 5.29-16.964c2.56-2.321 20.173-16.794 44.578-36.864l301.91-247.33c6.246-5.462 13.414-9.83 18.26-11.947l3.517-.82c7.85 3.107 15.052 7.442 21.777 13.313l322.218 263.919c12.084 10.172 20.207 16.828 20.344 16.896a27.546 27.546 0 0 1 8.67 19.968V859.17zm64-536.508L590.814 38.912a176.674 176.674 0 0 0-52.326-30.993A91.58 91.58 0 0 0 498.484.102c-12.766.24-26.454 2.56-37.479 7.441a178.415 178.415 0 0 0-52.565 31.062L107.077 285.457c-42.633 34.953-47.753 39.697-50.279 42.086a137.557 137.557 0 0 0-39.73 97.28v434.108A137.284 137.284 0 0 0 153.19 996.557h692.736a137.216 137.216 0 0 0 135.987-137.523V424.687a140.732 140.732 0 0 0-45.158-102.025z"/><path d="M502.819 441.993h-.308a200.772 200.772 0 0 0-198.997 201.181V739.5c0 19.456 10.41 37.546 27.204 47.24a54.682 54.682 0 0 0 54.614 0c16.793-9.694 27.306-27.818 27.306-47.24v-96.325a90.18 90.18 0 0 1 90.044-90.112 90.18 90.18 0 0 1 90.044 90.112V739.5a54.613 54.613 0 0 0 109.158 0v-96.256c.41-110.251-88.883-200.5-199.065-201.25"/></svg>